<svg aria-hidden="true" style="width:0;height:0;position:absolute;overflow:hidden" xmlns="http://www.w3.org/2000/svg"><defs><symbol id="burger-icon" viewBox="0 0 43 32"><path d="M.592 3.556a2.073 2.073 0 0 1 2.074-2.074h37.333a2.075 2.075 0 0 1 0 4.148H2.666A2.073 2.073 0 0 1 .592 3.556zm0 12.51a2.073 2.073 0 0 1 2.074-2.074h37.333a2.075 2.075 0 0 1 0 4.148H2.666a2.075 2.075 0 0 1-2.074-2.074zm2.074 10.437a2.073 2.073 0 0 0-1.467 3.541c.389.389.917.607 1.467.607h37.333A2.075 2.075 0 1 0 40 26.503H2.667z"/></symbol><symbol id="pointer-icon" viewBox="0 0 24 32"><path d="M11.587.368c2.231 0 4.138.779 5.72 2.336s2.372 3.451 2.372 5.683c0 1.275-.276 2.477-.828 3.605s-1.33 2.084-2.336 2.869h-1.251v-1.839c.711-.564 1.257-1.251 1.637-2.06s.57-1.667.57-2.575c0-1.618-.576-2.992-1.729-4.12s-2.538-1.692-4.156-1.692c-1.618 0-3.004.564-4.156 1.692s-1.729 2.501-1.729 4.12c0 .907.19 1.766.57 2.575s.926 1.496 1.637 2.06v2.648c-1.373-.711-2.452-1.717-3.237-3.016S3.494 9.932 3.494 8.387c0-2.231.791-4.126 2.372-5.683S9.354.368 11.586.368zm-1.398 30.896a3.032 3.032 0 0 1-2.133-.883L.479 22.804l2.06-2.133c.343-.343.73-.607 1.159-.791s.877-.215 1.343-.092l2.869.662V8.459c0-1.03.356-1.9 1.067-2.611s1.582-1.067 2.612-1.067 1.9.356 2.611 1.067 1.067 1.582 1.067 2.611v6.326h.956c.123 0 .233.024.331.073s.208.098.331.147l5.444 2.648c.588.27 1.024.705 1.306 1.306s.362 1.22.239 1.857l-1.324 8.018c-.123.711-.466 1.293-1.03 1.747s-1.202.68-1.913.68h-9.416zm-.294-2.207h10.336l1.582-9.159-6.731-3.347h-2.023V8.459c0-.441-.135-.797-.405-1.067s-.625-.405-1.067-.405-.797.135-1.067.405c-.27.27-.405.625-.405 1.067v14.676l-5.664-1.214-.846.846 6.29 6.29zm10.335 0z"/></symbol><symbol id="rocket-icon" viewBox="0 0 32 32"><path d="m4.838 13.295 4.038 1.714c.457-.914.946-1.816 1.467-2.705s1.073-1.74 1.657-2.552l-3.01-.61-4.152 4.152zm5.867 3.086 5.067 5.067c1.448-.66 2.806-1.41 4.076-2.248s2.298-1.651 3.086-2.438c2.057-2.057 3.568-4.165 4.533-6.324s1.486-4.597 1.562-7.314c-2.718.076-5.156.597-7.314 1.562s-4.267 2.476-6.324 4.533c-.787.787-1.6 1.816-2.438 3.086s-1.587 2.629-2.248 4.076zm8.724-3.657c-.508-.508-.762-1.137-.762-1.886s.254-1.378.762-1.886 1.136-.762 1.886-.762c.749 0 1.378.254 1.886.762s.762 1.136.762 1.886c0 .749-.254 1.378-.762 1.886s-1.136.762-1.886.762-1.378-.254-1.886-.762zm-.572 14.59 4.152-4.152-.61-3.009c-.813.584-1.664 1.136-2.552 1.657s-1.791 1.009-2.705 1.467l1.714 4.038zM31.276.876c.229 3.454-.203 6.603-1.295 9.448s-2.895 5.524-5.41 8.038l-.152.152.838 4.191c.076.381.057.749-.057 1.105s-.311.673-.59.952l-6.514 6.552-3.238-7.543-6.476-6.476-7.543-3.238 6.552-6.514c.279-.279.597-.476.952-.59s.724-.133 1.105-.057l4.19.838c.025-.025.051-.044.076-.057s.051-.032.076-.057c2.514-2.514 5.194-4.324 8.038-5.429S27.822.648 31.276.877zM3.39 21.905c.889-.889 1.975-1.34 3.257-1.352s2.368.425 3.257 1.314c.889.889 1.327 1.974 1.314 3.257s-.463 2.368-1.352 3.257c-.66.66-1.683 1.206-3.067 1.638s-3.46.838-6.229 1.219c.381-2.768.781-4.851 1.2-6.248s.959-2.425 1.619-3.086zm1.6 1.638c-.356.381-.673.978-.952 1.791s-.521 1.854-.724 3.124c1.27-.203 2.311-.444 3.124-.724s1.41-.597 1.79-.952c.483-.432.73-.971.743-1.619s-.21-1.213-.667-1.695c-.483-.457-1.048-.679-1.695-.667s-1.187.26-1.619.743z"/></symbol><symbol id="left-arrow-gallery" viewBox="0 0 18 32"><path d="m.48 16.965 14.861 14.16a1.334 1.334 0 0 0 1.84 0l.016-.016a1.237 1.237 0 0 0 .382-.889 1.22 1.22 0 0 0-.382-.889L3.202 15.998 17.197 2.67a1.222 1.222 0 0 0 .282-1.373 1.231 1.231 0 0 0-.282-.405l-.016-.016a1.336 1.336 0 0 0-1.84 0L.48 15.036a1.331 1.331 0 0 0 0 1.93z"/></symbol><symbol id="right-arrow-gallery" viewBox="0 0 18 32"><path d="M17.653 15.035 2.792.875a1.334 1.334 0 0 0-1.84 0L.936.891a1.222 1.222 0 0 0-.282 1.373c.065.153.162.291.282.405l13.995 13.333L.936 29.33a1.212 1.212 0 0 0-.381.889 1.236 1.236 0 0 0 .381.889l.016.016a1.334 1.334 0 0 0 1.84 0l14.861-14.16a1.331 1.331 0 0 0 0-1.93z"/></symbol><symbol id="logo-icon" viewBox="0 0 44 32"><path fill="#ffe553" style="fill:var(--color1,#ffe553)" d="M16.496 6.456c1.013-1.982 3.846-1.982 4.86 0l1.283 2.51a2.731 2.731 0 0 0 2.002 1.453l2.78.441c2.202.35 3.078 3.049 1.501 4.625l-1.984 1.983a2.728 2.728 0 0 0-.766 2.356l.438 2.773c.348 2.2-1.945 3.868-3.931 2.859l-2.517-1.278a2.73 2.73 0 0 0-2.471 0l-2.517 1.278c-1.986 1.009-4.279-.659-3.931-2.859l.438-2.773a2.732 2.732 0 0 0-.766-2.356l-1.984-1.983c-1.577-1.576-.7-4.276 1.501-4.625l2.78-.441a2.731 2.731 0 0 0 2.002-1.453l1.283-2.51z"/><path fill="#2c2c2c" style="fill:var(--color2,#2c2c2c)" d="m3.434 20.357-.021.005a31 31 0 0 1-.011.9c-.003.524-.004.868-.002 1.032 0 .157-.003.285-.01.384l.001.336c-.001.12-.008.219-.02.296l-.018.206c-.014.13-.042.201-.085.211-.092.022-.236-.049-.432-.212-.197-.17-.311-.319-.341-.447s-.038-1.06-.024-2.798c.021-1.74-.025-2.884-.14-3.433a.415.415 0 0 1 .014-.273c.036-.165.219-.321.551-.467.339-.147.845-.3 1.518-.459.68-.161 1.219-.25 1.619-.27.406-.021.625.032.655.159.02.085-.026.159-.138.223s-.212.117-.299.16a28.49 28.49 0 0 1-.349.138c-.145.049-.28.096-.404.14a11.76 11.76 0 0 0-.489.16c-.193.068-.372.133-.537.194-.167.054-.391.133-.673.237s-.465.169-.548.197c.012.02.023.051.033.093.079.333.122 1.13.129 2.392.444-.082.913-.204 1.405-.365.5-.163.806-.258.92-.284.269-.064.417-.039.444.075.052.22-.212.476-.793.771a8.668 8.668 0 0 1-1.955.697zm6.935-1.951a2.015 2.015 0 0 0-.278-.652c-.13-.201-.281-.334-.453-.398-.457.25-.788.728-.995 1.435-.201.698-.237 1.32-.108 1.865s.344.853.645.924c.486-.22.836-.669 1.049-1.347.219-.687.265-1.296.139-1.827zm-2.771.755c.117-.611.332-1.14.644-1.588.318-.456.686-.734 1.104-.833.425-.1.822-.003 1.191.291.367.287.612.689.735 1.206.121.51.121 1.063.001 1.66a3.774 3.774 0 0 1-.716 1.571c-.35.449-.769.731-1.258.846-.361.085-.702-.01-1.021-.286s-.54-.669-.661-1.179c-.123-.517-.129-1.08-.019-1.689zm7.585-1.892a2.015 2.015 0 0 0-.278-.652c-.13-.201-.281-.334-.453-.398-.457.25-.788.728-.995 1.435-.201.698-.237 1.32-.108 1.865s.344.853.645.924c.486-.22.836-.668 1.049-1.347.219-.687.265-1.296.139-1.827zm-2.772.756c.117-.611.332-1.14.645-1.588.318-.456.686-.734 1.104-.833.425-.1.822-.003 1.191.291.367.287.612.689.735 1.206.121.51.121 1.063.001 1.66a3.774 3.774 0 0 1-.716 1.571c-.35.449-.769.731-1.258.846-.361.085-.702-.01-1.021-.286s-.54-.669-.661-1.179c-.123-.517-.129-1.08-.019-1.689zm7.791-6.988c.113-.027.277.047.49.221.219.165.35.34.393.524s.079.729.107 1.635c.026.899.031 1.836.016 2.811-.02 2.188-.111 3.301-.274 3.34-.099.023-.223-.011-.372-.103-.144-.101-.226-.197-.248-.289s-.041-.282-.057-.57c-.526.872-1.048 1.369-1.565 1.491-.312.074-.628-.001-.951-.224-.315-.225-.509-.489-.581-.794-.104-.439-.111-.987-.019-1.644.096-.666.309-1.299.638-1.9s.744-.961 1.247-1.08c.503-.119.925.1 1.266.655.005-1.586-.077-2.819-.248-3.699-.05-.212.002-.337.158-.374zm.068 5.491c-.091-.382-.234-.689-.431-.919-.19-.232-.376-.326-.561-.283-.305.072-.572.333-.801.784s-.382.943-.458 1.476c-.07.525-.063.965.021 1.319.03.127.101.219.211.275s.23.069.357.039c.276-.065.601-.351.975-.858a3.565 3.565 0 0 0 .698-1.645l.002-.135-.013-.053zm6.782-.636c.138.581-.009 1.131-.439 1.651-.432.513-.988.85-1.668 1.011-.673.159-1.27.117-1.791-.127-.523-.25-.821-.531-.895-.843-.05-.212-.012-.334.116-.364.113-.027.377.091.79.352.156.09.353.163.591.219.245.054.487.053.728-.004a2.382 2.382 0 0 0 1.227-.693c.329-.347.458-.669.388-.966-.045-.191-.231-.405-.556-.643s-.675-.45-1.049-.638c-.368-.197-.716-.418-1.043-.662s-.512-.455-.554-.632c-.042-.177-.051-.373-.027-.588s.067-.379.13-.491c.204-.37.566-.751 1.087-1.143.527-.394.989-.637 1.386-.731.205-.049.395-.022.568.079s.278.226.313.375c.017.071-.044.145-.183.223s-.352.188-.64.33a5.273 5.273 0 0 0-.741.422c-.741.504-1.076.901-1.008 1.191.037.156.554.493 1.553 1.013.384.201.747.455 1.09.763.348.299.557.598.627.895zm2.44.534c.032.135.126.183.282.147.269-.064.577-.215.924-.454.353-.248.55-.377.593-.387.127-.03.207.022.239.157.049.205-.108.493-.469.862-.354.368-.705.593-1.052.674-.34.08-.645.055-.915-.076-.272-.138-.431-.306-.478-.504s-.064-.46-.051-.784c.011-.332.035-.767.072-1.307.042-.548.07-1 .083-1.354-.314.156-.528.248-.642.275s-.24-.003-.38-.09c-.135-.095-.215-.196-.24-.302-.04-.17.381-.441 1.265-.815a7.64 7.64 0 0 0-.179-1.606c-.05-.212-.005-.335.137-.369.12-.028.288.014.502.128.212.107.341.256.386.447s.065.542.059 1.052c.395-.131.713-.225.954-.281.425-.1.659-.058.703.126.025.106-.071.222-.288.348-.21.124-.665.348-1.367.67-.016.595-.052 1.28-.107 2.055-.057.769-.067 1.231-.03 1.387zm4.748-5.562c.319-.075.651.018.998.28.345.255.548.514.61.776.06.255.034.538-.079.849.11.086.174.168.193.246.047.198.082.549.104 1.052.029.502.051.829.065.983a3.374 3.374 0 0 1 .05.638c.014.184-.029.287-.128.311-.127.03-.26-.055-.397-.254-.132-.208-.246-.488-.345-.838-.441.949-.93 1.487-1.468 1.614-.326.077-.681.015-1.065-.186-.379-.21-.603-.463-.674-.761-.101-.425-.069-.986.095-1.682.162-.704.433-1.358.813-1.964s.789-.96 1.229-1.064zm.931 1.754c-.156-.659-.365-.957-.627-.895-.276.065-.551.339-.826.823-.276.476-.483.992-.62 1.548s-.172.979-.103 1.269c.029.12.102.208.219.262a.606.606 0 0 0 .376.023c.333-.079.655-.39.968-.935.31-.552.471-1.169.481-1.852-.004-.111.041-.189.135-.234l-.002-.011z"/><path fill="#bbf330" style="fill:var(--color3,#bbf330)" d="M33.157 19.973a.916.916 0 0 0-.643.602c-1.911 5.65-7.264 9.719-13.571 9.719a14.284 14.284 0 0 1-9.867-3.935.915.915 0 0 0-.848-.232c-.641.158-.883.934-.407 1.392a15.988 15.988 0 0 0 11.122 4.48c7.097 0 13.116-4.605 15.224-10.986.207-.626-.369-1.199-1.009-1.041zM4.186 14.15a.907.907 0 0 0 .667-.725c1.214-6.664 7.058-11.72 14.089-11.72 4.571 0 8.641 2.137 11.262 5.464.22.279.58.414.925.328.585-.144.85-.825.48-1.301A16.01 16.01 0 0 0 18.941-.002c-7.903 0-14.47 5.711-15.786 13.225-.104.592.446 1.07 1.03.926z"/><path fill="#bbf330" style="fill:var(--color3,#bbf330);stroke:var(--color3,#bbf330)" stroke="#bbf330" stroke-linejoin="round" stroke-width=".627" d="M43.04 5.331c-3.787 7.241-5.45 2.465-10.782 5.271.533-8.406 6.18-3.291 10.782-5.271z"/></symbol><symbol id="right-arrow-more-icon" viewBox="0 0 19 32"><path d="M16.436 16.392a1.264 1.264 0 0 1 0 1.788L3.548 31.068a1.264 1.264 0 0 1-1.788 0l-.596-.596a1.264 1.264 0 0 1 0-1.788l11.399-11.399L1.164 5.886a1.264 1.264 0 0 1 0-1.788l.596-.596a1.264 1.264 0 0 1 1.788 0L16.436 16.39z"/></symbol><symbol id="star-icon" viewBox="0 0 36 32"><path d="M15.639 1.037c.593-1.383 2.611-1.383 3.204 0l3.498 8.164c.25.583.815.982 1.463 1.032l9.079.707c1.538.12 2.162 1.983.99 2.958l-6.917 5.752a1.656 1.656 0 0 0-.559 1.67l2.113 8.6c.358 1.457-1.275 2.609-2.592 1.828l-7.773-4.609a1.781 1.781 0 0 0-1.809 0l-7.773 4.609c-1.317.781-2.95-.371-2.592-1.828l2.113-8.6a1.656 1.656 0 0 0-.559-1.67L.607 13.898c-1.172-.975-.548-2.838.99-2.958l9.079-.707a1.73 1.73 0 0 0 1.463-1.032l3.498-8.164z"/></symbol><symbol id="email-black" viewBox="0 0 32 32"><path d="M26.667 5.333H5.334A2.663 2.663 0 0 0 2.681 8l-.013 16c0 1.467 1.2 2.667 2.667 2.667h21.333c1.467 0 2.667-1.2 2.667-2.667V8c0-1.467-1.2-2.667-2.667-2.667zM26.133 11l-9.427 5.893a1.346 1.346 0 0 1-1.413 0L5.866 11a1.132 1.132 0 1 1 1.2-1.92l8.933 5.587 8.933-5.587a1.132 1.132 0 1 1 1.2 1.92z"/></symbol><symbol id="phone-black" viewBox="0 0 32 32"><path d="m24.882 19.773-3.268-.373a2.561 2.561 0 0 0-2.11.733L17.137 22.5a19.357 19.357 0 0 1-8.478-8.478l2.38-2.38a2.561 2.561 0 0 0 .733-2.11l-.373-3.242a2.575 2.575 0 0 0-2.56-2.277H6.613c-1.454 0-2.663 1.209-2.573 2.663.682 10.987 9.469 19.761 20.443 20.443 1.454.09 2.663-1.119 2.663-2.573V22.32a2.549 2.549 0 0 0-2.264-2.547z"/></symbol><symbol id="person-black" viewBox="0 0 32 32"><path d="M16 16c2.947 0 5.333-2.387 5.333-5.333S18.946 5.334 16 5.334c-2.947 0-5.333 2.387-5.333 5.333S13.054 16 16 16zm0 2.667c-3.56 0-10.667 1.787-10.667 5.333v1.333c0 .733.6 1.333 1.333 1.333h18.667c.733 0 1.333-.6 1.333-1.333V24c0-3.547-7.107-5.333-10.667-5.333z"/></symbol><symbol id="close" viewBox="0 0 32 32"><path d="M32 3.223 28.777 0 16 12.777 3.223 0 0 3.223 12.777 16 0 28.777 3.223 32 16 19.223 28.777 32 32 28.777 19.223 16 32 3.223z"/></symbol><symbol id="error-icon" viewBox="0 0 32 32"><path fill="none" stroke="#ff705d" style="stroke:var(--color1,#ff705d)" stroke-linejoin="round" stroke-linecap="round" stroke-width="2.3" d="M16 11.4v6.9m0 8a1.15 1.15 0 0 0 0-2.3v0a1.15 1.15 0 0 0 0 2.3v0z"/><path fill="none" stroke="#ff705d" style="stroke:var(--color1,#ff705d)" stroke-linejoin="round" stroke-linecap="round" stroke-width="2.3" d="M18 2.4a2.303 2.303 0 0 0-3.994-.011L14 2.4 1.4 27.5a2.3 2.3 0 0 0 1.999 3.4H28.6a2.3 2.3 0 0 0 1.994-3.412l.006.012L18 2.4z"/></symbol><symbol id="close" viewBox="0 0 32 32"><path d="M32 3.223 28.777 0 16 12.777 3.223 0 0 3.223 12.777 16 0 28.777 3.223 32 16 19.223 28.777 32 32 28.777 19.223 16 32 3.223z"/></symbol></defs></svg>