<svg xmlns="http://www.w3.org/2000/svg" version="1.1" xmlns:xlink="http://www.w3.org/1999/xlink" xmlns:svgjs="http://svgjs.com/svgjs" width="1000" height="1000"><rect width="1000" height="1000" rx="200" ry="200" fill="#ffffff"></rect><g transform="matrix(13.88888888888889,0,0,13.88888888888889,-10.966162151760557,138.88888888888886)"><svg xmlns="http://www.w3.org/2000/svg" version="1.1" xmlns:xlink="http://www.w3.org/1999/xlink" xmlns:svgjs="http://svgjs.com/svgjs" width="72" height="52"><svg width="72" height="52" viewBox="0 0 72 52" fill="none" xmlns="http://www.w3.org/2000/svg">
<path d="M26.8053 10.4904C28.4521 7.26894 33.0556 7.26894 34.7023 10.4904L36.787 14.5685C37.4318 15.8301 38.6407 16.7076 40.0401 16.9298L44.5573 17.647C48.1353 18.2151 49.5591 22.6015 46.997 25.1628L43.7737 28.3849C42.77 29.3882 42.3072 30.8113 42.5286 32.2131L43.2405 36.7186C43.8053 40.2941 40.0797 43.0035 36.8523 41.3643L32.7619 39.2869C31.4999 38.646 30.0078 38.646 28.7458 39.2869L24.6554 41.3644C21.428 43.0035 17.7024 40.2941 18.2672 36.7186L18.979 32.2131C19.2005 30.8113 18.7377 29.3882 17.734 28.3849L14.5107 25.1628C11.9485 22.6015 13.3724 18.2151 16.9504 17.647L21.4676 16.9298C22.8669 16.7076 24.0758 15.8301 24.7207 14.5685L26.8053 10.4904Z" fill="#FFE553"></path>
<path d="M5.57993 33.0802L5.5454 33.0883C5.54966 33.2088 5.54366 33.6963 5.52742 34.5506C5.52268 35.4023 5.52154 35.9614 5.52399 36.2282C5.52372 36.4834 5.5183 36.6912 5.50772 36.8517C5.50864 37.0094 5.50927 37.1915 5.5096 37.398C5.5072 37.593 5.49662 37.7534 5.47786 37.8793C5.46788 37.991 5.4579 38.1028 5.44792 38.2145C5.42523 38.4264 5.37936 38.5405 5.31031 38.5568C5.16069 38.5921 4.92686 38.4772 4.60881 38.2121C4.28803 37.9354 4.10309 37.6936 4.054 37.4865C4.00491 37.2793 3.992 35.7636 4.01527 32.9393C4.05004 30.1122 3.97394 28.2529 3.78695 27.3615C3.74604 27.1889 3.7536 27.0413 3.80961 26.9187C3.86743 26.6499 4.16603 26.3972 4.70542 26.1605C5.25631 25.9211 6.07843 25.6724 7.17178 25.4142C8.27663 25.1534 9.15343 25.0072 9.80218 24.9755C10.4624 24.9412 10.8171 25.0275 10.8662 25.2347C10.8989 25.3727 10.8243 25.4936 10.6423 25.5973C10.4603 25.7011 10.2985 25.7878 10.1571 25.8577C10.013 25.916 9.82412 25.991 9.59061 26.0825C9.35438 26.1626 9.13541 26.2386 8.93371 26.3105C8.72928 26.3709 8.46427 26.4578 8.1387 26.5711C7.82463 26.6817 7.53358 26.7869 7.26555 26.8866C6.99479 26.9748 6.6303 27.1034 6.17207 27.2723C5.71385 27.4412 5.41704 27.5477 5.28166 27.5919C5.30136 27.6237 5.31938 27.6741 5.33575 27.7431C5.46393 28.2839 5.53406 29.5796 5.54613 31.6301C6.26786 31.4962 7.02911 31.2983 7.82987 31.0363C8.64215 30.7717 9.14036 30.6176 9.3245 30.5741C9.76184 30.4709 10.0023 30.5113 10.046 30.6954C10.1305 31.0521 9.70078 31.4695 8.75678 31.9475C7.82429 32.4228 6.76534 32.8003 5.57993 33.0802ZM16.8495 29.9094C16.7567 29.5182 16.6061 29.165 16.3977 28.8497C16.1866 28.5229 15.9411 28.3074 15.6612 28.2034C14.9189 28.6095 14.3801 29.3867 14.0446 30.5351C13.718 31.6693 13.6596 32.6794 13.8696 33.5654C14.0796 34.4514 14.4292 34.9521 14.9184 35.0675C15.7088 34.7108 16.2772 33.9812 16.6236 32.8788C16.9787 31.7622 17.054 30.7724 16.8495 29.9094ZM12.346 31.1366C12.5361 30.144 12.8852 29.284 13.3933 28.5565C13.9102 27.8148 14.5082 27.3638 15.1872 27.2035C15.8778 27.0405 16.5228 27.1981 17.1222 27.6762C17.7189 28.1429 18.1168 28.7962 18.3159 29.6362C18.5123 30.4646 18.5127 31.3636 18.3172 32.3332C18.1189 33.2913 17.7312 34.1422 17.154 34.886C16.5856 35.6155 15.9044 36.074 15.1102 36.2615C14.5233 36.4001 13.9701 36.2451 13.4506 35.7967C12.9311 35.3483 12.5732 34.7098 12.3768 33.8814C12.1777 33.0414 12.1675 32.1265 12.346 31.1366ZM24.6719 28.0628C24.5792 27.6716 24.4286 27.3183 24.2202 27.003C24.009 26.6762 23.7635 26.4608 23.4836 26.3567C22.7414 26.7628 22.2025 27.5401 21.867 28.6885C21.5404 29.8227 21.4821 30.8328 21.6921 31.7188C21.9021 32.6047 22.2516 33.1054 22.7408 33.2208C23.5313 32.8641 24.0997 32.1346 24.446 31.0322C24.8011 29.9156 24.8764 28.9258 24.6719 28.0628ZM20.1685 29.29C20.3585 28.2974 20.7076 27.4373 21.2158 26.7099C21.7327 25.9682 22.3307 25.5172 23.0097 25.3569C23.7002 25.1939 24.3452 25.3514 24.9446 25.8296C25.5414 26.2962 25.9393 26.9495 26.1384 27.7895C26.3347 28.618 26.3351 29.517 26.1396 30.4866C25.9414 31.4446 25.5536 32.2955 24.9764 33.0393C24.408 33.7689 23.7268 34.2274 22.9327 34.4148C22.3457 34.5534 21.7925 34.3985 21.273 33.95C20.7535 33.5016 20.3956 32.8632 20.1992 32.0347C20.0001 31.1947 19.9899 30.2798 20.1685 29.29ZM32.8286 17.9358C33.0127 17.8923 33.278 18.0119 33.6245 18.2946C33.9799 18.5631 34.193 18.8469 34.2639 19.1461C34.3348 19.4453 34.3927 20.3307 34.4378 21.8024C34.48 23.2626 34.4886 24.7855 34.4633 26.371C34.4311 29.9264 34.2826 31.7354 34.0179 31.7979C33.8567 31.836 33.6552 31.7803 33.4132 31.6309C33.1799 31.4672 33.0456 31.3106 33.0101 31.161C32.9747 31.0114 32.944 30.7028 32.9182 30.235C32.0631 31.6519 31.2155 32.4595 30.3753 32.6578C29.8689 32.7774 29.354 32.6559 28.8306 32.2935C28.3187 31.9283 28.0041 31.4984 27.8868 31.0036C27.7177 30.2902 27.7072 29.3996 27.8552 28.3319C28.0119 27.25 28.3574 26.2207 28.8915 25.2441C29.4257 24.2675 30.1013 23.6827 30.9184 23.4898C31.7356 23.2969 32.4211 23.6515 32.9752 24.5534C32.984 21.9755 32.8494 19.9721 32.5715 18.5432C32.4897 18.1981 32.5754 17.9956 32.8286 17.9358ZM32.9383 26.8586C32.791 26.2372 32.5576 25.7395 32.238 25.3654C31.9299 24.9885 31.6263 24.8354 31.327 24.9061C30.8321 25.0229 30.398 25.4474 30.0247 26.1795C29.6513 26.9116 29.4034 27.7113 29.2808 28.5786C29.167 29.4317 29.1783 30.1459 29.3147 30.7212C29.3638 30.9283 29.4782 31.0775 29.6578 31.1687C29.8374 31.26 30.0308 31.2811 30.2379 31.2322C30.6868 31.1263 31.2146 30.6615 31.8215 29.8378C32.4398 29.0114 32.818 28.1202 32.956 27.1642L32.9587 26.9449L32.9383 26.8586ZM43.9592 25.8242C44.1828 26.7677 43.9452 27.6622 43.2463 28.5076C42.5446 29.3415 41.6414 29.8889 40.5365 30.1497C39.4432 30.4078 38.4729 30.3392 37.6257 29.9438C36.7758 29.5369 36.2908 29.0804 36.1708 28.5741C36.089 28.2289 36.1517 28.0318 36.3589 27.9829C36.543 27.9395 36.971 28.13 37.6428 28.5547C37.8963 28.7014 38.2162 28.8203 38.6024 28.9113C39 28.9997 39.3945 28.9977 39.7858 28.9053C40.5915 28.7152 41.2559 28.3396 41.7792 27.7786C42.314 27.215 42.5241 26.6915 42.4096 26.2082C42.336 25.8976 42.0347 25.5495 41.5058 25.164C40.977 24.7786 40.4089 24.4328 39.8016 24.1266C39.2031 23.8062 38.638 23.4475 38.1064 23.0505C37.5748 22.6535 37.2749 22.3112 37.2068 22.0236C37.1386 21.7359 37.1238 21.4174 37.1626 21.068C37.2013 20.7187 37.272 20.4529 37.3746 20.2707C37.7062 19.67 38.2948 19.0511 39.1403 18.4141C39.9974 17.7744 40.7481 17.3784 41.3926 17.2263C41.7264 17.1475 42.0343 17.1902 42.3163 17.3545C42.5983 17.5188 42.7679 17.7218 42.8252 17.9634C42.8524 18.0785 42.7534 18.199 42.5281 18.3251C42.3028 18.4512 41.9563 18.6302 41.4887 18.8621C41.0299 19.0798 40.6283 19.3082 40.2839 19.5475C39.0804 20.3662 38.5346 21.0115 38.6464 21.4832C38.7064 21.7364 39.5474 22.2851 41.1694 23.1293C41.7937 23.4558 42.3839 23.8693 42.94 24.3698C43.5049 24.8561 43.8447 25.3409 43.9592 25.8242ZM47.9248 26.6924C47.9766 26.911 48.1291 26.9904 48.3823 26.9306C48.8196 26.8274 49.3204 26.5816 49.8846 26.1932C50.4576 25.7907 50.7786 25.5812 50.8477 25.5649C51.0548 25.516 51.1843 25.6009 51.2361 25.8195C51.3152 26.1532 51.0613 26.6202 50.4744 27.2204C49.899 27.818 49.3294 28.1833 48.7654 28.3164C48.213 28.4468 47.7172 28.4059 47.278 28.1937C46.8361 27.97 46.577 27.697 46.5006 27.3748C46.4242 27.0527 46.3965 26.6279 46.4173 26.1005C46.4354 25.5616 46.4742 24.8538 46.5338 23.9771C46.6021 23.0861 46.647 22.3526 46.6684 21.7765C46.1575 22.0307 45.81 22.1796 45.6258 22.2231C45.4417 22.2666 45.2357 22.218 45.008 22.0773C44.789 21.9225 44.659 21.7588 44.6181 21.5862C44.5526 21.31 45.238 20.8688 46.6741 20.2624C46.6549 19.2585 46.5581 18.3883 46.3835 17.6519C46.3017 17.3067 46.3759 17.1069 46.6061 17.0526C46.8017 17.0064 47.0734 17.0759 47.4211 17.2611C47.7661 17.4349 47.9754 17.6771 48.0491 17.9877C48.1227 18.2984 48.1544 18.868 48.1442 19.6967C48.7866 19.4843 49.3034 19.3319 49.6947 19.2395C50.3853 19.0765 50.766 19.1446 50.8369 19.4437C50.8778 19.6163 50.722 19.805 50.3695 20.0097C50.0285 20.2117 49.2881 20.5748 48.1485 21.099C48.1223 22.0651 48.0641 23.1784 47.974 24.439C47.8812 25.6881 47.8648 26.4392 47.9248 26.6924ZM55.6393 17.6539C56.1572 17.5316 56.6976 17.6835 57.2604 18.1096C57.8204 18.5241 58.1509 18.9443 58.2518 19.37C58.35 19.7842 58.3071 20.2439 58.123 20.7491C58.302 20.8891 58.4065 21.0224 58.4365 21.149C58.5129 21.4711 58.569 22.0411 58.6048 22.8589C58.6522 23.6739 58.6872 24.2063 58.71 24.4561C58.7442 24.7032 58.7676 24.9042 58.78 25.0592C58.7897 25.2027 58.7937 25.3476 58.7919 25.4938C58.814 25.7924 58.7445 25.9606 58.5834 25.9987C58.3763 26.0476 58.1613 25.91 57.9387 25.5859C57.7248 25.2476 57.5382 24.7935 57.3788 24.2236C56.6627 25.7656 55.8673 26.6399 54.9926 26.8464C54.4632 26.9713 53.8864 26.8706 53.2621 26.5441C52.6467 26.2034 52.2816 25.7914 52.1671 25.3081C52.0035 24.6177 52.0548 23.7065 52.3212 22.5744C52.5849 21.4308 53.0254 20.3669 53.6429 19.3828C54.2603 18.3986 54.9258 17.8224 55.6393 17.6539ZM57.1535 20.5041C56.8998 19.434 56.5601 18.9492 56.1343 19.0498C55.6854 19.1557 55.2381 19.6015 54.7924 20.3872C54.3439 21.1613 54.008 22 53.7846 22.9033C53.5612 23.8065 53.5054 24.494 53.6172 24.9658C53.6636 25.1614 53.7823 25.3035 53.9734 25.392C54.1618 25.469 54.3654 25.4817 54.584 25.4301C55.125 25.3024 55.649 24.796 56.1562 23.9108C56.6607 23.0141 56.9212 22.0109 56.9377 20.9013C56.9313 20.7206 57.0046 20.5939 57.1575 20.5214L57.1535 20.5041Z" fill="#2C2C2C"></path>
<path fill-rule="evenodd" clip-rule="evenodd" d="M53.8801 32.4563C53.3867 32.5781 52.9977 32.9532 52.8348 33.4346C49.7295 42.6152 41.0315 49.2285 30.7813 49.2285C24.5653 49.2285 18.9202 46.7965 14.747 42.8347C14.3793 42.4857 13.8619 42.3359 13.3697 42.4574C12.3288 42.7144 11.9351 43.9757 12.7075 44.7192C17.3909 49.2274 23.7618 52 30.7813 52C42.3137 52 52.0953 44.5163 55.5196 34.1479C55.8555 33.1307 54.9201 32.1995 53.8801 32.4563ZM6.80284 22.994C7.36536 22.8551 7.78271 22.3866 7.88658 21.8166C9.85999 10.9873 19.3564 2.77153 30.7813 2.77153C38.2096 2.77153 44.8226 6.24471 49.0827 11.6512C49.4402 12.1049 50.0258 12.3232 50.5866 12.1848C51.5376 11.95 51.9673 10.8447 51.3661 10.0714C46.6018 3.94355 39.1528 0 30.7813 0C17.9391 0 7.26794 9.28018 5.12901 21.4898C4.96037 22.4525 5.854 23.2282 6.80284 22.994Z" fill="#BBF330"></path>
<path d="M69.9406 8.66363C63.786 20.4304 61.0842 12.6692 52.4205 17.2283C53.287 3.56927 62.4629 11.8802 69.9406 8.66363Z" fill="#BBF330" stroke="#BBF330" stroke-width="1.01961" stroke-linejoin="round"></path>
</svg></svg></g></svg>